<svg xmlns="http://www.w3.org/2000/svg" width="800" height="600" viewBox="0 0 800 600">
  <!-- Sky/background: overcast daylight, Nigerian farmland -->
  <rect width="800" height="600" fill="#c8b898"/>
  <!-- Sky -->
  <rect x="0" y="0" width="800" height="260" fill="#b0c4d8"/>
  <!-- Farm building (zinc roof) in background -->
  <rect x="480" y="120" width="280" height="160" fill="#8a7a6a"/>
  <polygon points="470,120 780,120 780,100 625,80 470,100" fill="#9a9090"/>
  <!-- Thatched hut hint -->
  <rect x="50" y="150" width="120" height="110" fill="#7a6a5a"/>
  <polygon points="40,150 180,150 180,135 110,100 40,135" fill="#a08060"/>
  <!-- Ground -->
  <rect x="0" y="260" width="800" height="340" fill="#c4a870"/>
  <!-- Ground texture/dirt -->
  <ellipse cx="200" cy="580" rx="200" ry="30" fill="#b89060" opacity="0.5"/>
  <ellipse cx="600" cy="580" rx="200" ry="30" fill="#b89060" opacity="0.5"/>

  <!-- Trees/vegetation in background -->
  <ellipse cx="160" cy="175" rx="55" ry="45" fill="#4a7a30"/>
  <ellipse cx="120" cy="185" rx="40" ry="38" fill="#3a6a28"/>
  <ellipse cx="730" cy="140" rx="50" ry="42" fill="#4a7a30"/>
  <ellipse cx="760" cy="155" rx="38" ry="35" fill="#3a6a28"/>
  <ellipse cx="420" cy="160" rx="45" ry="40" fill="#4a7a30"/>

  <defs>
    <!-- Mesh sack pattern gradient -->
    <linearGradient id="sack1" x1="0%" y1="0%" x2="100%" y2="0%">
      <stop offset="0%" stop-color="#6a8870"/>
      <stop offset="30%" stop-color="#8aaa88"/>
      <stop offset="70%" stop-color="#7a9878"/>
      <stop offset="100%" stop-color="#587060"/>
    </linearGradient>
    <linearGradient id="sack2" x1="0%" y1="0%" x2="100%" y2="0%">
      <stop offset="0%" stop-color="#5a7868"/>
      <stop offset="40%" stop-color="#7a9880"/>
      <stop offset="100%" stop-color="#4a6858"/>
    </linearGradient>
    <!-- Yam chunk gradient -->
    <radialGradient id="yam" cx="40%" cy="35%" r="65%">
      <stop offset="0%" stop-color="#f0e0b8"/>
      <stop offset="60%" stop-color="#d8c090"/>
      <stop offset="100%" stop-color="#b89860"/>
    </radialGradient>
    <radialGradient id="yam2" cx="40%" cy="35%" r="65%">
      <stop offset="0%" stop-color="#e8d8a8"/>
      <stop offset="100%" stop-color="#c0a060"/>
    </radialGradient>
  </defs>

  <!-- ==== LEFT FRONT SACK (tallest) ==== -->
  <rect x="85" y="280" width="120" height="295" rx="18" fill="url(#sack1)" opacity="0.9"/>
  <!-- Mesh lines vertical -->
  <line x1="103" y1="280" x2="103" y2="575" stroke="#3a5a40" stroke-width="1.5" opacity="0.4"/>
  <line x1="120" y1="280" x2="120" y2="575" stroke="#3a5a40" stroke-width="1.5" opacity="0.4"/>
  <line x1="137" y1="280" x2="137" y2="575" stroke="#3a5a40" stroke-width="1.5" opacity="0.4"/>
  <line x1="154" y1="280" x2="154" y2="575" stroke="#3a5a40" stroke-width="1.5" opacity="0.4"/>
  <line x1="171" y1="280" x2="171" y2="575" stroke="#3a5a40" stroke-width="1.5" opacity="0.4"/>
  <line x1="188" y1="280" x2="188" y2="575" stroke="#3a5a40" stroke-width="1.5" opacity="0.4"/>
  <!-- Horizontal mesh lines -->
  <line x1="85" y1="300" x2="205" y2="300" stroke="#3a5a40" stroke-width="1.5" opacity="0.4"/>
  <line x1="85" y1="320" x2="205" y2="320" stroke="#3a5a40" stroke-width="1.5" opacity="0.4"/>
  <line x1="85" y1="340" x2="205" y2="340" stroke="#3a5a40" stroke-width="1.5" opacity="0.4"/>
  <line x1="85" y1="360" x2="205" y2="360" stroke="#3a5a40" stroke-width="1.5" opacity="0.4"/>
  <line x1="85" y1="380" x2="205" y2="380" stroke="#3a5a40" stroke-width="1.5" opacity="0.4"/>
  <line x1="85" y1="400" x2="205" y2="400" stroke="#3a5a40" stroke-width="1.5" opacity="0.4"/>
  <line x1="85" y1="420" x2="205" y2="420" stroke="#3a5a40" stroke-width="1.5" opacity="0.4"/>
  <line x1="85" y1="450" x2="205" y2="450" stroke="#3a5a40" stroke-width="1.5" opacity="0.4"/>
  <line x1="85" y1="490" x2="205" y2="490" stroke="#3a5a40" stroke-width="1.5" opacity="0.4"/>
  <line x1="85" y1="530" x2="205" y2="530" stroke="#3a5a40" stroke-width="1.5" opacity="0.4"/>
  <!-- Yam chunks visible inside left sack (top opening) -->
  <ellipse cx="100" cy="290" rx="14" ry="9" fill="url(#yam)" transform="rotate(-15,100,290)"/>
  <ellipse cx="130" cy="283" rx="12" ry="8" fill="url(#yam2)" transform="rotate(10,130,283)"/>
  <ellipse cx="160" cy="289" rx="15" ry="9" fill="url(#yam)" transform="rotate(-8,160,289)"/>
  <ellipse cx="190" cy="284" rx="11" ry="7" fill="url(#yam2)" transform="rotate(18,190,284)"/>

  <!-- ==== CENTER FRONT SACK (medium) ==== -->
  <rect x="230" y="300" width="130" height="275" rx="18" fill="url(#sack2)" opacity="0.92"/>
  <line x1="248" y1="300" x2="248" y2="575" stroke="#3a5a40" stroke-width="1.5" opacity="0.4"/>
  <line x1="266" y1="300" x2="266" y2="575" stroke="#3a5a40" stroke-width="1.5" opacity="0.4"/>
  <line x1="284" y1="300" x2="284" y2="575" stroke="#3a5a40" stroke-width="1.5" opacity="0.4"/>
  <line x1="302" y1="300" x2="302" y2="575" stroke="#3a5a40" stroke-width="1.5" opacity="0.4"/>
  <line x1="320" y1="300" x2="320" y2="575" stroke="#3a5a40" stroke-width="1.5" opacity="0.4"/>
  <line x1="338" y1="300" x2="338" y2="575" stroke="#3a5a40" stroke-width="1.5" opacity="0.4"/>
  <line x1="230" y1="320" x2="360" y2="320" stroke="#3a5a40" stroke-width="1.5" opacity="0.4"/>
  <line x1="230" y1="350" x2="360" y2="350" stroke="#3a5a40" stroke-width="1.5" opacity="0.4"/>
  <line x1="230" y1="390" x2="360" y2="390" stroke="#3a5a40" stroke-width="1.5" opacity="0.4"/>
  <line x1="230" y1="430" x2="360" y2="430" stroke="#3a5a40" stroke-width="1.5" opacity="0.4"/>
  <line x1="230" y1="470" x2="360" y2="470" stroke="#3a5a40" stroke-width="1.5" opacity="0.4"/>
  <line x1="230" y1="510" x2="360" y2="510" stroke="#3a5a40" stroke-width="1.5" opacity="0.4"/>
  <line x1="230" y1="550" x2="360" y2="550" stroke="#3a5a40" stroke-width="1.5" opacity="0.4"/>
  <!-- Yam chunks at top of center sack -->
  <ellipse cx="248" cy="310" rx="14" ry="8" fill="url(#yam)" transform="rotate(12,248,310)"/>
  <ellipse cx="280" cy="305" rx="16" ry="9" fill="url(#yam2)" transform="rotate(-7,280,305)"/>
  <ellipse cx="314" cy="310" rx="13" ry="8" fill="url(#yam)" transform="rotate(20,314,310)"/>
  <ellipse cx="345" cy="307" rx="12" ry="7" fill="url(#yam2)" transform="rotate(-14,345,307)"/>

  <!-- ==== RIGHT FRONT SACK ==== -->
  <rect x="385" y="310" width="125" height="265" rx="18" fill="url(#sack1)" opacity="0.88"/>
  <line x1="403" y1="310" x2="403" y2="575" stroke="#3a5a40" stroke-width="1.5" opacity="0.4"/>
  <line x1="421" y1="310" x2="421" y2="575" stroke="#3a5a40" stroke-width="1.5" opacity="0.4"/>
  <line x1="439" y1="310" x2="439" y2="575" stroke="#3a5a40" stroke-width="1.5" opacity="0.4"/>
  <line x1="457" y1="310" x2="457" y2="575" stroke="#3a5a40" stroke-width="1.5" opacity="0.4"/>
  <line x1="475" y1="310" x2="475" y2="575" stroke="#3a5a40" stroke-width="1.5" opacity="0.4"/>
  <line x1="493" y1="310" x2="493" y2="575" stroke="#3a5a40" stroke-width="1.5" opacity="0.4"/>
  <line x1="385" y1="335" x2="510" y2="335" stroke="#3a5a40" stroke-width="1.5" opacity="0.4"/>
  <line x1="385" y1="365" x2="510" y2="365" stroke="#3a5a40" stroke-width="1.5" opacity="0.4"/>
  <line x1="385" y1="400" x2="510" y2="400" stroke="#3a5a40" stroke-width="1.5" opacity="0.4"/>
  <line x1="385" y1="440" x2="510" y2="440" stroke="#3a5a40" stroke-width="1.5" opacity="0.4"/>
  <line x1="385" y1="480" x2="510" y2="480" stroke="#3a5a40" stroke-width="1.5" opacity="0.4"/>
  <line x1="385" y1="520" x2="510" y2="520" stroke="#3a5a40" stroke-width="1.5" opacity="0.4"/>
  <!-- Yam chunks at top -->
  <ellipse cx="405" cy="320" rx="13" ry="8" fill="url(#yam2)" transform="rotate(-10,405,320)"/>
  <ellipse cx="435" cy="315" rx="15" ry="8" fill="url(#yam)" transform="rotate(15,435,315)"/>
  <ellipse cx="466" cy="320" rx="13" ry="8" fill="url(#yam2)" transform="rotate(-5,466,320)"/>
  <ellipse cx="493" cy="313" rx="12" ry="7" fill="url(#yam)" transform="rotate(22,493,313)"/>

  <!-- ==== FAR RIGHT SACK (background depth) ==== -->
  <rect x="530" y="330" width="110" height="245" rx="16" fill="#6a8870" opacity="0.75"/>
  <line x1="548" y1="330" x2="548" y2="575" stroke="#3a5a40" stroke-width="1" opacity="0.3"/>
  <line x1="566" y1="330" x2="566" y2="575" stroke="#3a5a40" stroke-width="1" opacity="0.3"/>
  <line x1="584" y1="330" x2="584" y2="575" stroke="#3a5a40" stroke-width="1" opacity="0.3"/>
  <line x1="602" y1="330" x2="602" y2="575" stroke="#3a5a40" stroke-width="1" opacity="0.3"/>
  <line x1="620" y1="330" x2="620" y2="575" stroke="#3a5a40" stroke-width="1" opacity="0.3"/>
  <line x1="530" y1="355" x2="640" y2="355" stroke="#3a5a40" stroke-width="1" opacity="0.3"/>
  <line x1="530" y1="390" x2="640" y2="390" stroke="#3a5a40" stroke-width="1" opacity="0.3"/>
  <line x1="530" y1="430" x2="640" y2="430" stroke="#3a5a40" stroke-width="1" opacity="0.3"/>
  <line x1="530" y1="470" x2="640" y2="470" stroke="#3a5a40" stroke-width="1" opacity="0.3"/>
  <line x1="530" y1="510" x2="640" y2="510" stroke="#3a5a40" stroke-width="1" opacity="0.3"/>
  <!-- Yam chunks at top of far right sack -->
  <ellipse cx="550" cy="340" rx="13" ry="8" fill="url(#yam)" transform="rotate(9,550,340)"/>
  <ellipse cx="576" cy="334" rx="12" ry="7" fill="url(#yam2)" transform="rotate(-12,576,334)"/>
  <ellipse cx="606" cy="340" rx="13" ry="8" fill="url(#yam)" transform="rotate(18,606,340)"/>
  <ellipse cx="630" cy="335" rx="10" ry="7" fill="url(#yam2)" transform="rotate(-8,630,335)"/>

  <!-- ==== FAR LEFT BACKGROUND SACK ==== -->
  <rect x="20" y="345" width="75" height="230" rx="12" fill="#5a7868" opacity="0.7"/>
  <line x1="35" y1="345" x2="35" y2="575" stroke="#3a5a40" stroke-width="1" opacity="0.3"/>
  <line x1="50" y1="345" x2="50" y2="575" stroke="#3a5a40" stroke-width="1" opacity="0.3"/>
  <line x1="65" y1="345" x2="65" y2="575" stroke="#3a5a40" stroke-width="1" opacity="0.3"/>
  <line x1="80" y1="345" x2="80" y2="575" stroke="#3a5a40" stroke-width="1" opacity="0.3"/>
  <line x1="20" y1="370" x2="95" y2="370" stroke="#3a5a40" stroke-width="1" opacity="0.3"/>
  <line x1="20" y1="410" x2="95" y2="410" stroke="#3a5a40" stroke-width="1" opacity="0.3"/>
  <line x1="20" y1="455" x2="95" y2="455" stroke="#3a5a40" stroke-width="1" opacity="0.3"/>
  <line x1="20" y1="500" x2="95" y2="500" stroke="#3a5a40" stroke-width="1" opacity="0.3"/>
  <!-- Yam chunks at top of far left sack -->
  <ellipse cx="38" cy="355" rx="11" ry="7" fill="url(#yam)" transform="rotate(-10,38,355)"/>
  <ellipse cx="60" cy="350" rx="10" ry="6" fill="url(#yam2)" transform="rotate(14,60,350)"/>
  <ellipse cx="80" cy="355" rx="11" ry="7" fill="url(#yam)" transform="rotate(-5,80,355)"/>

  <!-- ==== FAR FAR RIGHTBACKGROUND SACK ==== -->
  <rect x="660" y="355" width="90" height="220" rx="13" fill="#5a7868" opacity="0.65"/>
  <line x1="676" y1="355" x2="676" y2="575" stroke="#3a5a40" stroke-width="1" opacity="0.25"/>
  <line x1="695" y1="355" x2="695" y2="575" stroke="#3a5a40" stroke-width="1" opacity="0.25"/>
  <line x1="714" y1="355" x2="714" y2="575" stroke="#3a5a40" stroke-width="1" opacity="0.25"/>
  <line x1="733" y1="355" x2="733" y2="575" stroke="#3a5a40" stroke-width="1" opacity="0.25"/>
  <line x1="660" y1="380" x2="750" y2="380" stroke="#3a5a40" stroke-width="1" opacity="0.25"/>
  <line x1="660" y1="420" x2="750" y2="420" stroke="#3a5a40" stroke-width="1" opacity="0.25"/>
  <line x1="660" y1="464" x2="750" y2="464" stroke="#3a5a40" stroke-width="1" opacity="0.25"/>
  <line x1="660" y1="510" x2="750" y2="510" stroke="#3a5a40" stroke-width="1" opacity="0.25"/>

  <!-- Metal bucket / tin can suggestion (visible in original photo) -->
  <rect x="150" y="270" width="28" height="32" rx="5" fill="#a0a8b0"/>
  <ellipse cx="164" cy="270" rx="14" ry="5" fill="#b8c0c8"/>
  <line x1="150" y1="265" x2="178" y2="265" stroke="#888" stroke-width="2"/>

  <!-- Label -->
  <rect x="0" y="545" width="800" height="55" fill="#1a1008" opacity="0.85"/>
  <text x="400" y="572" font-family="Georgia, serif" font-size="20" font-weight="bold" fill="#f5d878" text-anchor="middle" letter-spacing="2">ELUBO KAIAMA (YAM FLOUR)</text>
  <text x="400" y="592" font-family="Georgia, serif" font-size="13" fill="#d4b85a" text-anchor="middle">Sourced from Kaiama · ₦100,000/100kg · Amala Isu Grade</text>
</svg>
